<svg width="82" height="82" viewBox="0 0 82 82" fill="none" xmlns="http://www.w3.org/2000/svg">
<g id="auto_awesome_black_24dp 1">
<path id="Vector" d="M66.4163 27.1666L69.099 21.2239L75.0417 18.5412C76.3661 17.93 76.3661 16.0622 75.0417 15.451L69.099 12.7683L66.4163 6.79162C65.805 5.46725 63.9373 5.46725 63.3261 6.79162L60.6433 12.7343L54.6667 15.417C53.3423 16.0283 53.3423 17.896 54.6667 18.5072L60.6094 21.19L63.2921 27.1666C63.9033 28.491 65.805 28.491 66.4163 27.1666ZM39.3854 32.2604L33.9861 20.375C32.7975 17.7262 28.9942 17.7262 27.8056 20.375L22.4063 32.2604L10.5208 37.6597C7.8721 38.8822 7.8721 42.6516 10.5208 43.8402L22.4063 49.2395L27.8056 61.125C29.0281 63.7737 32.7975 63.7737 33.9861 61.125L39.3854 49.2395L51.2708 43.8402C53.9196 42.6177 53.9196 38.8483 51.2708 37.6597L39.3854 32.2604ZM63.2921 54.3333L60.6094 60.276L54.6667 62.9587C53.3423 63.57 53.3423 65.4377 54.6667 66.0489L60.6094 68.7316L63.2921 74.7083C63.9033 76.0327 65.7711 76.0327 66.3823 74.7083L69.065 68.7656L75.0417 66.0829C76.3661 65.4716 76.3661 63.6039 75.0417 62.9927L69.099 60.31L66.4163 54.3333C65.805 53.0089 63.9033 53.0089 63.2921 54.3333Z" fill="#536EEE"/>
</g>
</svg>
